<svg width="82" height="82" viewBox="0 0 82 82" fill="none" xmlns="http://www.w3.org/2000/svg">
<path d="M71.9934 58.472C77.9731 55.4821 81.6875 49.4722 81.6875 42.7863V37.0625H55.8037L53.0514 45.3181C52.8939 45.7959 52.8125 46.2933 52.8125 46.796C52.8125 48.5784 53.8021 50.1823 55.3968 50.9789L55.4375 53.5816C55.4375 55.1291 56.0399 56.5846 57.1346 57.6792C58.0979 58.6426 59.3474 59.1978 60.6875 59.3225V64.9623C59.4419 65.8614 58.3184 66.8996 57.338 68.0519C54.8508 64.8402 51.2729 62.7219 47.2344 62.0971L46.691 60.4657C50.1914 59.6651 52.8125 56.5334 52.8125 52.7941V46.796V37.0625H48.875V32.4294C48.875 30.8452 49.6139 29.3384 50.9015 28.2963C54.6185 25.2894 56.75 20.8308 56.75 16.0625C56.75 11.5869 54.8364 7.30681 51.4974 4.32087C48.1623 1.33756 43.6801 -0.0825624 39.1914 0.413563C32.2811 1.18531 26.4995 6.71619 25.4429 13.5661C24.5754 19.1849 26.6649 24.6712 31.0316 28.2425C32.3611 29.3306 33.125 30.857 33.125 32.4333V37.0625H29.1875V46.796V52.7941C29.1875 56.5334 31.8086 59.6651 35.309 60.4657L34.7643 62.0984C30.7704 62.7258 27.1439 64.8836 24.6659 68.0585C23.6842 66.9035 22.5594 65.864 21.3112 64.9623V59.3225C22.6513 59.1978 23.9007 58.6426 24.8641 57.6779C25.9601 56.5846 26.5625 55.1304 26.5625 53.5816V50.9986L26.6032 50.9789C28.1979 50.1823 29.1875 48.5784 29.1875 46.796C29.1875 46.2933 29.1061 45.7959 28.9473 45.3168L26.1963 37.0625H22.625V14.4403L16.5114 2.213C15.926 1.04094 14.7487 0.3125 13.4375 0.3125C12.1263 0.3125 10.949 1.04094 10.3636 2.21169L4.25 14.4403V37.0625H0.3125V42.7863C0.3125 49.4722 4.02687 55.4821 10.0066 58.472L10.8125 58.8749V61.0209C4.58338 63.0343 0.3125 68.8211 0.3125 75.4492V81.6875H81.6875V75.4479C81.6875 68.8197 77.4166 63.0329 71.1875 61.0196V58.8736L71.9934 58.472ZM79.0625 42.7863C79.0625 48.3264 76.0477 53.3034 71.1875 55.9061V52.0434L72.6588 50.5721C73.403 49.8292 73.8125 48.8396 73.8125 47.7869V47.5625C73.8125 45.851 72.7152 44.3915 71.1875 43.8494V39.6875H79.0625V42.7863ZM63.3125 59.375H65.9375V56.75H61.2309H61.2296C60.3843 56.75 59.5903 56.4206 58.9917 55.8221C58.4011 55.2327 58.0625 54.4164 58.0625 53.5816V49.3764L56.5715 48.6296C55.8719 48.2817 55.4375 47.5783 55.4375 46.796C55.4375 46.5755 55.4729 46.3563 55.5425 46.1476L57.6963 39.6875H68.5625V46.25H69.875C70.5982 46.25 71.1875 46.8393 71.1875 47.5625V47.7869C71.1875 48.1374 71.051 48.4681 70.8029 48.7162L68.5625 50.9566V61.1246L64.5239 62.8072C64.1118 62.9791 63.7076 63.1642 63.3125 63.3624V59.375ZM41 66.7027L37.2515 62.9398L38.0088 60.6678H43.9912L44.7485 62.9398L41 66.7027ZM35.2933 64.6959L39.1454 68.5612L36.5126 71.1941L35.0767 64.73C35.1489 64.7182 35.2211 64.7064 35.2933 64.6959ZM46.7081 64.6932C46.7803 64.7038 46.8524 64.7156 46.9246 64.7274L45.4874 71.1927L42.8546 68.5599L46.7081 64.6932ZM32.6932 26.2108C29.0536 23.234 27.3132 18.656 28.0364 13.9651C28.9158 8.26756 33.7288 3.66462 39.4814 3.0215C43.2811 2.6015 46.9259 3.75388 49.7465 6.2765C52.529 8.76631 54.125 12.3324 54.125 16.0625C54.125 20.0341 52.3479 23.7498 49.2517 26.2554C47.51 27.6637 46.4574 29.6639 46.2854 31.8125H43.7156L44.5031 20H46.25C48.4209 20 50.1875 18.2334 50.1875 16.0625C50.1875 13.8916 48.4209 12.125 46.25 12.125H46.0807C44.0161 12.125 42.2902 13.7394 42.1524 15.8013L42.0474 17.375H39.9526L39.8476 15.8C39.7098 13.7394 37.9839 12.125 35.9193 12.125H35.75C33.5791 12.125 31.8125 13.8916 31.8125 16.0625C31.8125 18.2334 33.5791 20 35.75 20H37.4969L38.2844 31.8125H35.7132C35.5374 29.6744 34.4651 27.6584 32.6932 26.2108ZM40.9147 31.8125L40.1272 20H41.8715L41.084 31.8125H40.9147ZM44.6776 17.375L44.7708 15.9759C44.8167 15.2881 45.3929 14.75 46.0807 14.75H46.25C46.9732 14.75 47.5625 15.3393 47.5625 16.0625C47.5625 16.7857 46.9732 17.375 46.25 17.375H44.6776ZM37.3224 17.375H35.75C35.0268 17.375 34.4375 16.7857 34.4375 16.0625C34.4375 15.3393 35.0268 14.75 35.75 14.75H35.9193C36.6071 14.75 37.1833 15.2881 37.2292 15.9759L37.3224 17.375ZM35.75 34.4375H46.25V37.0625H35.75V34.4375ZM31.8125 52.7941V39.6875H50.1875V52.7941C50.1875 55.6895 47.8329 58.0441 44.9375 58.0441H37.0625C34.1671 58.0441 31.8125 55.6882 31.8125 52.7941ZM20.3636 67.5256L19.4592 69.3329L14.5781 66.4047L14.0307 64.2168L16.4654 65.2314C17.8895 65.8233 19.1954 66.6003 20.3636 67.5256ZM26.4575 46.1463C26.5271 46.3563 26.5625 46.5742 26.5625 46.796C26.5625 47.5783 26.1281 48.2817 25.4285 48.6309L23.9375 49.3777V53.5829C23.9375 54.4295 23.6081 55.2249 23.0082 55.8247C22.4111 56.4219 21.6157 56.75 20.7704 56.75H20.7691H16.0625V59.375H18.6875V63.3637C18.2924 63.1655 17.8882 62.9804 17.4761 62.8085L13.4375 61.1246V50.9566L11.1971 48.7162C10.949 48.4681 10.8125 48.1374 10.8125 47.7869V47.5625C10.8125 46.8393 11.4018 46.25 12.125 46.25H13.4375V39.6875H24.3037L26.4575 46.1463ZM14.75 37.0625V16.0625H20V37.0625H14.75ZM12.7117 3.38506C12.9886 2.8325 13.8864 2.8325 14.162 3.38506L19.1889 13.4375H7.68612L12.7117 3.38506ZM6.875 16.0625H12.125V37.0625H6.875V16.0625ZM2.9375 42.7863V39.6875H10.8125V43.8494C9.28475 44.3915 8.1875 45.851 8.1875 47.5625V47.7869C8.1875 48.8383 8.597 49.8279 9.34119 50.5721L10.8125 52.0434V55.9061C5.95231 53.3021 2.9375 48.3264 2.9375 42.7863ZM10.8125 79.0625V71.1875H8.1875V79.0625H2.9375V75.4479C2.9375 70.1217 6.27125 65.4506 11.1879 63.6629L12.2956 68.0953L20.5394 73.0421L22.3559 69.4078C24.7289 72.0433 26.2212 75.4137 26.51 79.0625H10.8125ZM29.1429 79.0625C28.9263 75.8902 27.9288 72.8911 26.3039 70.2897C27.8461 68.0598 30.0314 66.3601 32.5383 65.4072L34.9874 76.4309L41 70.4184L47.0126 76.4309L49.4643 65.3968C51.9764 66.3378 54.1394 68.0257 55.6974 70.2871C54.0725 72.8885 53.0724 75.8889 52.8571 79.0625H29.1429ZM79.0625 75.4479V79.0625H73.8125V71.1875H71.1875V79.0625H55.49C55.973 72.9567 59.8081 67.6162 65.5346 65.2301L69.9682 63.3834C75.3442 64.9203 79.0625 69.8212 79.0625 75.4479Z" fill="white"/>
<path d="M46.25 48.875H43.625C43.625 49.5982 43.0357 50.1875 42.3125 50.1875H37.0625V52.8125H42.3125C44.4834 52.8125 46.25 51.0459 46.25 48.875Z" fill="white"/>
<path d="M63.3125 30.5C63.3125 32.6709 65.0791 34.4375 67.25 34.4375C69.4209 34.4375 71.1875 32.6709 71.1875 30.5C71.1875 28.3291 69.4209 26.5625 67.25 26.5625C65.0791 26.5625 63.3125 28.3291 63.3125 30.5ZM68.5625 30.5C68.5625 31.2232 67.9732 31.8125 67.25 31.8125C66.5268 31.8125 65.9375 31.2232 65.9375 30.5C65.9375 29.7768 66.5268 29.1875 67.25 29.1875C67.9732 29.1875 68.5625 29.7768 68.5625 30.5Z" fill="white"/>
<path d="M62 10.4555C62 7.757 64.1945 5.5625 66.893 5.5625H67.6083C70.3055 5.5625 72.5 7.757 72.5 10.4555C72.5 11.9504 71.8306 13.343 70.6638 14.2762L65.9375 18.0575V23.9375H68.5625V19.3175L72.3031 16.325C74.096 14.8917 75.125 12.7524 75.125 10.4555C75.125 6.30931 71.7532 2.9375 67.607 2.9375H66.8917C62.7468 2.9375 59.375 6.30931 59.375 10.4555V10.8125H62V10.4555Z" fill="white"/>
</svg>
