<svg width="85" height="84" viewBox="0 0 85 84" fill="none" xmlns="http://www.w3.org/2000/svg">
<g clip-path="url(#clip0_442_3334)">
<path d="M79.0806 40.8105V32.6815H67.9925C67.5837 31.5344 66.68 30.6307 65.5323 30.2212V20.7413L62.378 20.0844L63.504 19.5724C64.7358 19.0127 65.5323 17.777 65.5323 16.4234C65.5323 15.0699 64.7358 13.8348 63.5053 13.2752L36.1651 0.847436C34.1718 -0.0568926 31.8591 -0.0568926 29.8672 0.847436L2.52829 13.2752C1.2965 13.8348 0.5 15.0699 0.5 16.4234C0.5 17.777 1.2965 19.0127 2.52697 19.5724L8.62903 22.3456V38.8683L9.28594 39.2625C9.50161 39.3909 13.4292 41.6778 22.1774 42.8441V78.746H46.7015C47.3312 81.8341 50.0667 84.1654 53.3387 84.1654C56.6107 84.1654 59.3475 81.8341 59.976 78.746H84.5V40.8105H79.0806ZM62.0082 37.4618C62.6367 37.8614 63.3783 38.1009 64.1774 38.1009C64.9766 38.1009 65.7182 37.8614 66.3466 37.4618L68.2419 45.0418V46.2299H60.1129V45.0418L62.0082 37.4618ZM64.1774 32.6815C64.925 32.6815 65.5323 33.2901 65.5323 34.0364C65.5323 34.7832 64.925 35.3912 64.1774 35.3912C63.4299 35.3912 62.8226 34.7832 62.8226 34.0364C62.8226 33.2901 63.4299 32.6815 64.1774 32.6815ZM62.8226 22.9443V30.2212C61.3335 30.7525 60.2538 32.1179 60.1413 33.7605L57.4449 44.5476L57.4032 48.9396H70.9516V44.8751L68.6157 35.3912H76.371V70.617H54.6936V40.2185C55.9875 39.7011 56.661 39.3135 56.7463 39.2625L57.4032 38.8683V22.3456L58.2024 21.9824L62.8226 22.9443ZM30.3065 43.4785C31.1817 43.5043 32.08 43.5202 33.0161 43.5202C42.0369 43.5202 48.1972 42.2931 51.9839 41.1539V70.617H30.3065V43.4785ZM3.20968 16.4234C3.20968 16.131 3.38168 15.8625 3.64894 15.7421L30.9892 3.31565C31.6302 3.02325 32.3116 2.87506 33.0161 2.87506C33.7207 2.87506 34.4021 3.02325 35.0431 3.31433L62.3846 15.7421C62.6506 15.8625 62.8226 16.131 62.8226 16.4234C62.8226 16.7165 62.6506 16.9844 62.3833 17.1055L57.8881 19.1483L31.9378 13.7409L31.3848 16.3937L53.7125 21.045L35.0431 29.5319C33.7623 30.1154 32.2699 30.1141 30.9892 29.5319L3.64762 17.1055C3.38168 16.9844 3.20968 16.7165 3.20968 16.4234ZM11.3387 23.5774L29.8672 32.0001C30.8635 32.4526 31.9213 32.6815 33.0161 32.6815C34.111 32.6815 35.1688 32.4526 36.1651 32.0001L54.6936 23.5774V37.268C52.66 38.2067 45.8573 40.8105 33.0161 40.8105C20.1696 40.8105 13.3657 38.2041 11.3387 37.268V23.5774ZM81.7903 76.0363H57.4032V77.3912C57.4032 79.6325 55.5794 81.4557 53.3387 81.4557C51.0981 81.4557 49.2742 79.6325 49.2742 77.3912V76.0363H24.8871V43.1531C25.7491 43.2344 26.6554 43.3026 27.5968 43.3595V73.3267H79.0806V43.5202H81.7903V76.0363Z" fill="white"/>
<path d="M33.0161 67.9073H49.2742V57.0686H33.0161V67.9073ZM35.7258 59.7783H46.5645V65.1976H35.7258V59.7783Z" fill="white"/>
<path d="M33.0161 51.6492H49.2742V54.3589H33.0161V51.6492Z" fill="white"/>
<path d="M33.0161 46.2299H49.2742V48.9396H33.0161V46.2299Z" fill="white"/>
<path d="M57.4032 51.6492H73.6613V54.3589H57.4032V51.6492Z" fill="white"/>
<path d="M57.4032 57.0686H73.6613V59.7783H57.4032V57.0686Z" fill="white"/>
<path d="M57.4032 62.488H73.6613V65.1977H57.4032V62.488Z" fill="white"/>
<path d="M14.9156 13.5987L29.4074 7.00507L30.5294 9.47196L16.0376 16.0649L14.9156 13.5987Z" fill="white"/>
</g>
<defs>
<clipPath id="clip0_442_3334">
<rect width="84" height="84" fill="white" transform="translate(0.5)"/>
</clipPath>
</defs>
</svg>
