<svg width="85" height="84" viewBox="0 0 85 84" fill="none" xmlns="http://www.w3.org/2000/svg">
<path d="M83.1875 42C83.1875 39.9263 81.959 38.1111 80.174 37.2684C80.8408 35.4099 80.426 33.2574 78.9599 31.7914C77.4912 30.324 75.3401 29.9093 73.4829 30.576C72.6389 28.791 70.8238 27.5625 68.75 27.5625C67.1894 27.5625 65.7759 28.2581 64.8125 29.3632V22.3125H72.6875V7.875C72.6875 4.25644 69.7436 1.3125 66.125 1.3125H8.375C4.75644 1.3125 1.8125 4.25644 1.8125 7.875V82.6875H64.8125V72.9986L68.75 71.0299L77.9375 75.6236V52.9896C78.3011 52.773 78.6489 52.5197 78.9599 52.2086C80.426 50.7412 80.8408 48.5901 80.174 46.7316C81.959 45.8889 83.1875 44.0737 83.1875 42ZM73.5275 33.5436C74.5644 32.634 76.1341 32.6799 77.1027 33.6473C78.0701 34.6159 78.116 36.1869 77.2064 37.2238L76.8363 37.6451C75.9832 36.0675 74.6825 34.7668 73.1049 33.9137L73.5275 33.5436ZM77.2064 46.7775C78.116 47.8144 78.0701 49.3841 77.1027 50.3541C76.1367 51.3201 74.5644 51.3686 73.5262 50.4577L73.1049 50.0876C74.6825 49.2345 75.9832 47.9338 76.8363 46.3562L77.2064 46.7775ZM63.9725 33.5436L64.3951 33.9137C62.8175 34.7668 61.5168 36.0675 60.6637 37.6451L60.2936 37.2238C59.384 36.1869 59.4299 34.6159 60.3973 33.6473C61.3659 32.6786 62.9369 32.6327 63.9725 33.5436ZM68.75 35.4375C72.3686 35.4375 75.3125 38.3814 75.3125 42C75.3125 45.6186 72.3686 48.5625 68.75 48.5625C65.1314 48.5625 62.1875 45.6186 62.1875 42C62.1875 38.3814 65.1314 35.4375 68.75 35.4375ZM59.9523 39.3619C59.7016 40.1979 59.5625 41.0826 59.5625 42C59.5625 42.9174 59.7016 43.8021 59.9536 44.6381L59.3932 44.6014C58.0151 44.5121 56.9375 43.3689 56.9375 42C56.9375 40.6311 58.0151 39.4879 59.3919 39.3986L59.9523 39.3619ZM60.3973 50.3527C59.4286 49.3841 59.384 47.8131 60.2923 46.7762L60.6624 46.3549C61.5155 47.9325 62.8162 49.2332 64.3938 50.0863L63.9725 50.4564C62.9356 51.3673 61.3659 51.3227 60.3973 50.3527ZM68.75 51.1875C69.6674 51.1875 70.5521 51.0484 71.3881 50.7977L71.3514 51.3581C71.2621 52.7349 70.1189 53.8125 68.75 53.8125C67.3811 53.8125 66.2379 52.7349 66.1486 51.3581L66.1119 50.7977C66.9479 51.0484 67.8326 51.1875 68.75 51.1875ZM68.75 30.1875C70.1189 30.1875 71.2621 31.2651 71.3514 32.6419L71.3881 33.2023C70.5521 32.9516 69.6674 32.8125 68.75 32.8125C67.8326 32.8125 66.9479 32.9516 66.1119 33.2023L66.1486 32.6419C66.2379 31.2651 67.3811 30.1875 68.75 30.1875ZM66.125 3.9375C68.2959 3.9375 70.0625 5.70412 70.0625 7.875V19.6875H14.9375V7.875C14.9375 6.39844 14.4466 5.03475 13.6224 3.9375H66.125ZM62.1875 80.0625H4.4375V7.875C4.4375 5.70412 6.20412 3.9375 8.375 3.9375C10.5459 3.9375 12.3125 5.70412 12.3125 7.875V22.3125H62.1875V30.2794C60.8606 30.2912 59.5415 30.7913 58.5414 31.7914C57.0753 33.2588 56.6606 35.4099 57.3273 37.2684C55.541 38.1111 54.3125 39.9263 54.3125 42C54.3125 44.0737 55.541 45.8889 57.326 46.7316C56.6606 48.5901 57.0753 50.7412 58.5414 52.2086C58.8524 52.5197 59.1989 52.773 59.5625 52.9896V75.6236L62.1875 74.3111V80.0625ZM75.3125 71.3764L70.0625 68.7514V59.0625H67.4375V68.7514L62.1875 71.3764V53.7206C62.807 53.7259 63.4265 53.6366 64.0184 53.424C64.8611 55.209 66.6762 56.4375 68.75 56.4375C70.8238 56.4375 72.6389 55.209 73.4816 53.424C74.0722 53.6353 74.693 53.7259 75.3125 53.7206V71.3764ZM78.1081 44.6014L77.5477 44.6381C77.7984 43.8021 77.9375 42.9174 77.9375 42C77.9375 41.0826 77.7984 40.1979 77.5477 39.3619L78.1081 39.3986C79.4849 39.4879 80.5625 40.6311 80.5625 42C80.5625 43.3689 79.4849 44.5121 78.1081 44.6014Z" fill="white"/>
<path d="M68.75 45.9375C70.9209 45.9375 72.6875 44.1709 72.6875 42C72.6875 39.8291 70.9209 38.0625 68.75 38.0625C66.5791 38.0625 64.8125 39.8291 64.8125 42C64.8125 44.1709 66.5791 45.9375 68.75 45.9375ZM68.75 40.6875C69.4732 40.6875 70.0625 41.2768 70.0625 42C70.0625 42.7232 69.4732 43.3125 68.75 43.3125C68.0268 43.3125 67.4375 42.7232 67.4375 42C67.4375 41.2768 68.0268 40.6875 68.75 40.6875Z" fill="white"/>
<path d="M9.6875 24.9375H7.0625V27.5625H9.6875V24.9375Z" fill="white"/>
<path d="M59.5625 24.9375H12.3125V27.5625H59.5625V24.9375Z" fill="white"/>
<path d="M54.3125 30.1875H7.0625V32.8125H54.3125V30.1875Z" fill="white"/>
<path d="M54.3125 35.4375H7.0625V38.0625H54.3125V35.4375Z" fill="white"/>
<path d="M53 59.0625H11C8.82912 59.0625 7.0625 60.8291 7.0625 63V73.5C7.0625 75.6709 8.82912 77.4375 11 77.4375H53C55.1709 77.4375 56.9375 75.6709 56.9375 73.5V63C56.9375 60.8291 55.1709 59.0625 53 59.0625ZM54.3125 73.5C54.3125 74.2245 53.7232 74.8125 53 74.8125H11C10.2768 74.8125 9.6875 74.2245 9.6875 73.5V63C9.6875 62.2755 10.2768 61.6875 11 61.6875H53C53.7232 61.6875 54.3125 62.2755 54.3125 63V73.5Z" fill="white"/>
<path d="M17.5625 64.3125H14.9375V66.9375H17.5625V64.3125Z" fill="white"/>
<path d="M17.5625 69.5625H14.9375V72.1875H17.5625V69.5625Z" fill="white"/>
<path d="M20.1875 66.9375H17.5625V69.5625H20.1875V66.9375Z" fill="white"/>
<path d="M14.9375 66.9375H12.3125V69.5625H14.9375V66.9375Z" fill="white"/>
<path d="M28.0625 64.3125H25.4375V66.9375H28.0625V64.3125Z" fill="white"/>
<path d="M28.0625 69.5625H25.4375V72.1875H28.0625V69.5625Z" fill="white"/>
<path d="M30.6875 66.9375H28.0625V69.5625H30.6875V66.9375Z" fill="white"/>
<path d="M25.4375 66.9375H22.8125V69.5625H25.4375V66.9375Z" fill="white"/>
<path d="M38.5625 64.3125H35.9375V66.9375H38.5625V64.3125Z" fill="white"/>
<path d="M38.5625 69.5625H35.9375V72.1875H38.5625V69.5625Z" fill="white"/>
<path d="M41.1875 66.9375H38.5625V69.5625H41.1875V66.9375Z" fill="white"/>
<path d="M35.9375 66.9375H33.3125V69.5625H35.9375V66.9375Z" fill="white"/>
<path d="M49.0625 64.3125H46.4375V66.9375H49.0625V64.3125Z" fill="white"/>
<path d="M49.0625 69.5625H46.4375V72.1875H49.0625V69.5625Z" fill="white"/>
<path d="M51.6875 66.9375H49.0625V69.5625H51.6875V66.9375Z" fill="white"/>
<path d="M46.4375 66.9375H43.8125V69.5625H46.4375V66.9375Z" fill="white"/>
<path d="M51.6875 40.6875H7.0625V43.3125H51.6875V40.6875Z" fill="white"/>
<path d="M51.6875 45.9375H12.3125V48.5625H51.6875V45.9375Z" fill="white"/>
<path d="M9.6875 45.9375H7.0625V48.5625H9.6875V45.9375Z" fill="white"/>
<path d="M46.4375 51.1875H7.0625V53.8125H46.4375V51.1875Z" fill="white"/>
<path d="M51.6875 51.1875H49.0625V53.8125H51.6875V51.1875Z" fill="white"/>
</svg>
