<svg style="display: none;" aria-hidden="true" xmlns="http://www.w3.org/2000/svg" xmlns:xlink="http://www.w3.org/1999/xlink"><symbol viewBox="0 0 15 15" fill="none" id="arrow"><path d="M13.5 7.5L9.5 3.5M13.5 7.5L9.5 11.5M13.5 7.5H1" stroke="#6F7EFF"/></symbol><symbol viewBox="0 0 15 15" fill="none" id="arrow2"><path d="M10 14L3 7.5L10 1" stroke-linecap="square"/></symbol><symbol viewBox="0 0 20 20" fill="none" id="facebook"><path fill-rule="evenodd" clip-rule="evenodd" d="M0.166672 10C0.166672 4.56922 4.56921 0.166687 10 0.166687C15.4308 0.166687 19.8333 4.56922 19.8333 10C19.8333 15.4308 15.4308 19.8334 10 19.8334C4.56921 19.8334 0.166672 15.4308 0.166672 10ZM10 1.16669C5.12149 1.16669 1.16667 5.12151 1.16667 10C1.16667 14.7107 4.85411 18.5602 9.5 18.8194V11.8334H6.66667V10.8334H9.5V8.66669C9.5 6.91779 10.9178 5.50002 12.6667 5.50002H13.3333V6.50002H12.6667C11.4701 6.50002 10.5 7.47007 10.5 8.66669V10.8334H13.3333V11.8334H10.5V18.8194C15.1459 18.5602 18.8333 14.7107 18.8333 10C18.8333 5.12151 14.8785 1.16669 10 1.16669Z"/></symbol><symbol viewBox="0 0 20 20" fill="none" id="facewbook"><path d="M10 19.3334C4.84535 19.3334 0.666672 15.1547 0.666672 10C0.666672 4.84536 4.84535 0.666687 10 0.666687C15.1547 0.666687 19.3333 4.84536 19.3333 10C19.3333 15.1547 15.1547 19.3334 10 19.3334ZM10 19.3334V8.66669C10 7.19393 11.1939 6.00002 12.6667 6.00002H13.3333M6.66667 11.3334H13.3333" stroke="#666B73"/></symbol><symbol viewBox="0 0 20 20" fill="none" id="instagram"><path fill-rule="evenodd" clip-rule="evenodd" d="M0.166672 6.00002C0.166672 2.77836 2.77834 0.166687 6 0.166687H14C17.2217 0.166687 19.8333 2.77836 19.8333 6.00002V14C19.8333 17.2217 17.2217 19.8334 14 19.8334H6C2.77834 19.8334 0.166672 17.2217 0.166672 14V6.00002ZM6 1.16669C3.33063 1.16669 1.16667 3.33064 1.16667 6.00002V14C1.16667 16.6694 3.33063 18.8334 6 18.8334H14C16.6694 18.8334 18.8333 16.6694 18.8333 14V6.00002C18.8333 3.33064 16.6694 1.16669 14 1.16669H6ZM16 5.16669H14.6667V4.16669H16V5.16669ZM5.5 10C5.5 7.51474 7.51472 5.50002 10 5.50002C12.4853 5.50002 14.5 7.51474 14.5 10C14.5 12.4853 12.4853 14.5 10 14.5C7.51472 14.5 5.5 12.4853 5.5 10ZM10 6.50002C8.06701 6.50002 6.5 8.06702 6.5 10C6.5 11.933 8.06701 13.5 10 13.5C11.933 13.5 13.5 11.933 13.5 10C13.5 8.06702 11.933 6.50002 10 6.50002Z" fill="#666B73"/></symbol><symbol viewBox="0 0 20 20" fill="none" id="linkedin"><path fill-rule="evenodd" clip-rule="evenodd" d="M0.166667 2.00002C0.166667 0.987499 0.987478 0.166687 2 0.166687H18C19.0125 0.166687 19.8333 0.987498 19.8333 2.00002V18C19.8333 19.0125 19.0125 19.8334 18 19.8334H2C0.987478 19.8334 0.166667 19.0125 0.166667 18V2.00002ZM2 1.16669C1.53976 1.16669 1.16667 1.53978 1.16667 2.00002V18C1.16667 18.4603 1.53976 18.8334 2 18.8334H18C18.4602 18.8334 18.8333 18.4603 18.8333 18V2.00002C18.8333 1.53978 18.4602 1.16669 18 1.16669H2ZM6.66667 6.50002H5.33333V5.50002H6.66667V6.50002ZM5.5 14.6667V8.00002H6.5V14.6667H5.5ZM8.16667 8.00002H9.16667V9.02394C9.7331 8.4923 10.4952 8.16669 11.3333 8.16669C13.0822 8.16669 14.5 9.58445 14.5 11.3334V14.6667H13.5V11.3334C13.5 10.1367 12.5299 9.16669 11.3333 9.16669C10.1367 9.16669 9.16667 10.1367 9.16667 11.3334V14.6667H8.16667V8.00002Z" fill="#666B73"/></symbol><symbol viewBox="0 0 20 20" fill="none" id="pinterest"><path fill-rule="evenodd" clip-rule="evenodd" d="M0.166668 10C0.166668 4.56922 4.5692 0.166687 10 0.166687C15.4308 0.166687 19.8333 4.56922 19.8333 10C19.8333 15.4308 15.4308 19.8334 10 19.8334C4.5692 19.8334 0.166668 15.4308 0.166668 10ZM10 1.16669C5.12149 1.16669 1.16667 5.12151 1.16667 10C1.16667 13.2769 2.95096 16.137 5.60097 17.6618L9.54043 8.46973L10.4596 8.86365L9.15946 11.8973L9.17522 11.9445L9.13319 11.9585L9.17522 11.9445C9.48486 12.8735 10.3542 13.5 11.3333 13.5C13.2663 13.5 14.8333 11.933 14.8333 10V9.33335C14.8333 7.03217 12.9679 5.16669 10.6667 5.16669H9.33333C7.03215 5.16669 5.16667 7.03217 5.16667 9.33335V10C5.16667 10.8968 5.50325 11.7137 6.05776 12.3332L5.31262 13.0001C4.60036 12.2043 4.16667 11.1522 4.16667 10V9.33335C4.16667 6.47988 6.47986 4.16669 9.33333 4.16669H10.6667C13.5201 4.16669 15.8333 6.47988 15.8333 9.33335V10C15.8333 12.4853 13.8186 14.5 11.3333 14.5C10.2428 14.5 9.24688 13.9601 8.64551 13.0965L6.49632 18.1112C7.5705 18.5759 8.75518 18.8334 10 18.8334C14.8785 18.8334 18.8333 14.8785 18.8333 10C18.8333 5.12151 14.8785 1.16669 10 1.16669Z" fill="#666B73"/></symbol><symbol viewBox="0 0 15 15" fill="none" id="search"><path fill-rule="evenodd" clip-rule="evenodd" d="M0 6.5C0 2.91015 2.91015 0 6.5 0C10.0899 0 13 2.91015 13 6.5C13 8.11495 12.411 9.59234 11.4362 10.7291L14.8536 14.1464L14.1464 14.8536L10.7291 11.4362C9.59234 12.411 8.11495 13 6.5 13C2.91015 13 0 10.0899 0 6.5ZM6.5 1C3.46243 1 1 3.46243 1 6.5C1 9.53757 3.46243 12 6.5 12C9.53757 12 12 9.53757 12 6.5C12 3.46243 9.53757 1 6.5 1Z" fill="#2B2B2B"/></symbol><symbol viewBox="0 0 20 18" fill="none" id="twitter"><path fill-rule="evenodd" clip-rule="evenodd" d="M19.4681 0.527519C19.658 0.593264 19.7901 0.766371 19.8034 0.966943C19.8761 2.06264 19.8226 2.87922 19.5759 3.57481C19.3483 4.21633 18.9717 4.71161 18.4732 5.21032V5.91668C18.4732 12.3133 13.2956 17.5 6.90701 17.5H6.85711C4.73738 17.5001 2.51227 17.5002 0.389018 16.0825C0.205831 15.9602 0.124265 15.7324 0.18817 15.5216C0.252076 15.3108 0.446397 15.1667 0.666665 15.1667C3.13209 15.1667 5.21809 14.0409 6.3515 13.1776C3.7019 12.1245 1.85631 10.4965 0.957735 8.45113C-0.0318339 6.19863 0.171044 3.54004 1.55059 0.776689C1.63946 0.598671 1.82542 0.490288 2.02412 0.500706C2.22282 0.511123 2.39643 0.63836 2.46619 0.824696C3.06432 2.42216 5.29656 5.58389 9.48559 5.81942L9.48559 5.05481C9.48559 2.54 11.5213 0.50002 14.0341 0.50002C15.2364 0.50002 16.3274 0.979166 17.1262 1.75575C17.7808 1.60115 18.4275 1.22727 18.9328 0.665616C19.0672 0.516177 19.2781 0.461775 19.4681 0.527519ZM9.48559 6.82099C5.51027 6.62285 3.09652 4.0848 2.01301 2.18822C1.14495 4.37944 1.13883 6.37712 1.87328 8.04891C2.71595 9.96703 4.57745 11.5563 7.48138 12.5258C7.64564 12.5806 7.76983 12.7165 7.80965 12.8851C7.84946 13.0536 7.79923 13.2307 7.67687 13.3533C6.89935 14.132 4.95685 15.5179 2.43496 15.9977C3.83999 16.4939 5.31215 16.5 6.90701 16.5C12.7419 16.5 17.4732 11.7624 17.4732 5.91668V4.94523C17.4732 4.73419 17.604 4.5537 17.7889 4.48031C18.2162 4.04904 18.4766 3.68245 18.6334 3.24048C18.7442 2.92825 18.8102 2.55852 18.8283 2.07516C18.2755 2.45109 17.6566 2.69726 17.0296 2.79222L16.764 2.83245L16.5839 2.6332C15.9538 1.9364 15.0451 1.50002 14.0341 1.50002C12.0751 1.50002 10.4856 3.09083 10.4856 5.05481V7.00002L9.48559 7.00002V6.82099Z" fill="#666B73"/></symbol><symbol viewBox="0 0 20 20" fill="none" id="youtube"><path fill-rule="evenodd" clip-rule="evenodd" d="M2.04306 2.52704C7.28815 1.4031 12.7118 1.4031 17.9569 2.52704C19.0514 2.76157 19.8333 3.7288 19.8333 4.84812V15.1519C19.8333 16.2712 19.0514 17.2384 17.9569 17.473C12.7118 18.5969 7.28815 18.5969 2.04306 17.473C0.948583 17.2384 0.166664 16.2712 0.166664 15.1519V4.84812C0.166664 3.7288 0.948583 2.76157 2.04306 2.52704ZM17.7474 3.50485C12.6404 2.41049 7.35956 2.41049 2.25259 3.50485C1.61918 3.64057 1.16666 4.20034 1.16666 4.84812V15.1519C1.16666 15.7997 1.61918 16.3594 2.25259 16.4952C7.35956 17.5895 12.6404 17.5895 17.7474 16.4952C18.3808 16.3594 18.8333 15.7997 18.8333 15.1519V4.84812C18.8333 4.20034 18.3808 3.64057 17.7474 3.50485ZM8.43073 6.8925C8.59331 6.80549 8.79059 6.81502 8.94401 6.91731L12.944 9.58398C13.0831 9.67671 13.1667 9.83283 13.1667 10C13.1667 10.1672 13.0831 10.3233 12.944 10.416L8.94401 13.0827C8.79059 13.185 8.59331 13.1945 8.43073 13.1075C8.26816 13.0205 8.16666 12.8511 8.16666 12.6667V7.33334C8.16666 7.14894 8.26816 6.97951 8.43073 6.8925ZM9.16666 8.26759V11.7324L11.7653 10L9.16666 8.26759Z" fill="#666B73"/></symbol></svg>